<svg viewBox="0 0 200 200" xmlns="http://www.w3.org/2000/svg">
    <path fill="#0F62FE"
        d="M27.5,-49C36.8,-42.3,46.1,-37.2,54,-29.2C62,-21.3,68.6,-10.7,70.2,0.9C71.8,12.5,68.4,25,59.1,30.5C49.7,36.1,34.4,34.6,23.6,33.9C12.7,33.3,6.4,33.5,-2,37C-10.4,40.4,-20.8,47.2,-28.4,46C-36,44.8,-40.9,35.6,-51.8,26.6C-62.6,17.6,-79.6,8.8,-81.9,-1.3C-84.1,-11.4,-71.7,-22.8,-56.3,-24C-40.9,-25.2,-22.5,-16.1,-12.6,-22.4C-2.7,-28.7,-1.3,-50.4,3.9,-57.2C9.1,-64,18.3,-55.7,27.5,-49Z"
        transform="translate(100 100)" />
</svg>